<svg xmlns="http://www.w3.org/2000/svg" width="32pt" height="32pt" viewBox="0 0 32 32"><path d="M31.383 16c0 8.496-6.887 15.383-15.383 15.383C7.504 31.383.617 24.496.617 16 .617 7.504 7.504.617 16 .617 24.496.617 31.383 7.504 31.383 16zm0 0" fill="#202336"/><path d="M10.043 11.55l-3.426 1.985V9.566zm.02 4.45l-3.446 1.984v-3.968zm-.02 4.45l-3.426 1.984v-3.97zm.14-4.208v3.965l-3.449-1.984zm0-8.898l.02 3.968-3.45-1.984zm0 4.449l.02 3.965-3.45-1.98zm0 8.895l.02 3.968-3.45-1.984zm.301-9.375v-3.97l3.426 1.985zm0 0" fill="#fff"/><path d="M10.484 20.688l3.426 1.984-3.426 1.984zm0 0" fill="#0ff"/><path d="M10.625 11.55l3.426-1.984v3.97zm3.703 1.985V9.566l3.43 1.985zm0 .48L17.758 16l-3.43 1.984zm0 4.45l3.43 1.984-3.43 1.985zm.14-4.688l3.43-1.984v3.965zm3.43 2.465v3.965l-3.43-1.984zM21.54 9.72v3.969l-3.43-1.985zm3.707 1.984l-3.43 1.985-.015-3.97zm-3.43 6.91l3.43 1.985-3.445 1.984zm3.45-2.46l-3.45 1.98v-3.965zm.117.238v3.968l-3.445-1.984zm0 4.468v3.97l-3.445-1.985zM21.957 9.477l3.426-1.98v3.964zm3.426 2.464v3.97l-3.426-1.985zm0 0" fill="#fff"/><path d="M27.316 4.684A15.96 15.96 0 0016-.004 15.96 15.96 0 004.684 4.684 15.96 15.96 0 00-.004 16a15.96 15.96 0 004.688 11.316A15.96 15.96 0 0016 32.004a15.96 15.96 0 0011.316-4.688A15.96 15.96 0 0032.004 16a15.96 15.96 0 00-4.688-11.316zm-.433 22.199A15.342 15.342 0 0116 31.39c-4.25 0-8.098-1.723-10.883-4.508A15.342 15.342 0 01.61 16c0-4.25 1.723-8.098 4.508-10.883A15.342 15.342 0 0116 .61c4.25 0 8.098 1.723 10.883 4.508A15.342 15.342 0 0131.39 16c0 4.25-1.723 8.098-4.508 10.883zm0 0" fill="#0ff"/></svg>